<?xml version="1.0" encoding="UTF-8"?>
<svg xmlns="http://www.w3.org/2000/svg" xmlns:xlink="http://www.w3.org/1999/xlink" width="64px" height="64px" viewBox="0 0 64 64" version="1.1">
<defs>
<filter id="alpha" filterUnits="objectBoundingBox" x="0%" y="0%" width="100%" height="100%">
  <feColorMatrix type="matrix" in="SourceGraphic" values="0 0 0 0 1 0 0 0 0 1 0 0 0 0 1 0 0 0 1 0"/>
</filter>
<mask id="mask0">
  <g filter="url(#alpha)">
<rect x="0" y="0" width="64" height="64" style="fill:rgb(0%,0%,0%);fill-opacity:0.984314;stroke:none;"/>
  </g>
</mask>
<clipPath id="clip1">
  <rect x="0" y="0" width="64" height="64"/>
</clipPath>
<g id="surface5" clip-path="url(#clip1)">
<path style=" stroke:none;fill-rule:evenodd;fill:rgb(0%,0%,0.392157%);fill-opacity:1;" d="M 23.6875 -0.0625 C 29.1875 -0.0625 34.6875 -0.0625 40.1875 -0.0625 C 41.460938 0.265625 42.460938 0.992188 43.1875 2.125 C 45.316406 2.136719 47.441406 2.21875 49.5625 2.375 C 54.304688 3.65625 57.074219 6.71875 57.875 11.5625 C 58 26.191406 57.957031 40.816406 57.75 55.4375 C 56.542969 60.082031 53.605469 62.914062 48.9375 63.9375 C 37.605469 63.9375 26.269531 63.9375 14.9375 63.9375 C 10.269531 62.914062 7.332031 60.082031 6.125 55.4375 C 5.917969 40.816406 5.875 26.191406 6 11.5625 C 6.800781 6.71875 9.570312 3.65625 14.3125 2.375 C 16.433594 2.21875 18.558594 2.136719 20.6875 2.125 C 21.414062 0.992188 22.414062 0.265625 23.6875 -0.0625 Z M 23.6875 -0.0625 "/>
</g>
</defs>
<g id="surface1">
<use xlink:href="#surface5" mask="url(#mask0)"/>
<path style=" stroke:none;fill-rule:evenodd;fill:rgb(95.686275%,78.431373%,33.333333%);fill-opacity:1;" d="M 30.0625 1.8125 C 28.980469 2.945312 28.566406 4.300781 28.8125 5.875 C 28.574219 7.5625 28.992188 9.039062 30.0625 10.3125 C 28.105469 10.332031 26.144531 10.3125 24.1875 10.25 C 23.144531 9.957031 22.414062 9.3125 22 8.3125 C 21.753906 6.8125 21.753906 5.3125 22 3.8125 C 22.40625 2.863281 23.09375 2.21875 24.0625 1.875 C 26.0625 1.8125 28.0625 1.792969 30.0625 1.8125 Z M 30.0625 1.8125 "/>
<path style=" stroke:none;fill-rule:evenodd;fill:rgb(98.039216%,88.235294%,62.352941%);fill-opacity:1;" d="M 30.0625 1.8125 C 33.269531 1.792969 36.480469 1.8125 39.6875 1.875 C 40.925781 2.238281 41.699219 3.050781 42 4.3125 C 42.113281 5.652344 42.070312 6.988281 41.875 8.3125 C 41.257812 9.671875 40.195312 10.359375 38.6875 10.375 C 38.382812 10.503906 38.21875 10.730469 38.1875 11.0625 C 37.492188 11.265625 36.828125 11.222656 36.1875 10.9375 C 36.121094 10.660156 35.957031 10.472656 35.6875 10.375 C 33.8125 10.3125 31.9375 10.292969 30.0625 10.3125 C 28.992188 9.039062 28.574219 7.5625 28.8125 5.875 C 28.566406 4.300781 28.980469 2.945312 30.0625 1.8125 Z M 30.0625 1.8125 "/>
<path style=" stroke:none;fill-rule:evenodd;fill:rgb(16.078431%,23.529412%,42.745098%);fill-opacity:1;" d="M 48.3125 4.1875 C 46.855469 4.1875 45.394531 4.1875 43.9375 4.1875 C 43.976562 5.460938 43.9375 6.710938 43.8125 7.9375 C 43.8125 6.644531 43.8125 5.355469 43.8125 4.0625 C 45.335938 4.019531 46.835938 4.0625 48.3125 4.1875 Z M 48.3125 4.1875 "/>
<path style=" stroke:none;fill-rule:evenodd;fill:rgb(10.588235%,17.647059%,46.666667%);fill-opacity:1;" d="M 20.0625 4.3125 C 19.9375 5.457031 19.898438 6.625 19.9375 7.8125 C 19.164062 7.773438 18.414062 7.8125 17.6875 7.9375 C 14.476562 8.503906 12.496094 10.378906 11.75 13.5625 C 11.667969 23.394531 11.667969 33.230469 11.75 43.0625 C 11.910156 43.402344 12.179688 43.570312 12.5625 43.5625 C 12.5625 44.1875 12.5625 44.8125 12.5625 45.4375 C 12.226562 45.492188 11.953125 45.660156 11.75 45.9375 C 11.667969 48.144531 11.667969 50.355469 11.75 52.5625 C 12.492188 55.679688 14.429688 57.574219 17.5625 58.25 C 19.4375 58.3125 21.3125 58.332031 23.1875 58.3125 C 22.503906 59.585938 22.546875 60.835938 23.3125 62.0625 C 20.644531 62.082031 17.980469 62.0625 15.3125 62 C 10.96875 61.03125 8.488281 58.34375 7.875 53.9375 C 7.75 39.640625 7.792969 25.351562 8 11.0625 C 9.429688 6.21875 12.679688 3.882812 17.75 4.0625 C 18.566406 4.0625 19.339844 4.144531 20.0625 4.3125 Z M 20.0625 4.3125 "/>
<path style=" stroke:none;fill-rule:evenodd;fill:rgb(23.137255%,33.72549%,61.568627%);fill-opacity:1;" d="M 48.3125 4.1875 C 52.632812 4.945312 55.195312 7.488281 56 11.8125 C 56.082031 25.855469 56.082031 39.894531 56 53.9375 C 55.480469 58.082031 53.210938 60.726562 49.1875 61.875 C 40.566406 62.058594 31.941406 62.121094 23.3125 62.0625 C 22.546875 60.835938 22.503906 59.585938 23.1875 58.3125 C 30.8125 58.332031 38.4375 58.3125 46.0625 58.25 C 49.449219 57.65625 51.46875 55.675781 52.125 52.3125 C 52.207031 40.9375 52.207031 29.5625 52.125 18.1875 C 51.246094 13.382812 48.515625 10.132812 43.9375 8.4375 C 43.820312 8.289062 43.78125 8.121094 43.8125 7.9375 C 43.9375 6.710938 43.976562 5.460938 43.9375 4.1875 C 45.394531 4.1875 46.855469 4.1875 48.3125 4.1875 Z M 48.3125 4.1875 "/>
<path style=" stroke:none;fill-rule:evenodd;fill:rgb(4.313725%,7.058824%,18.431373%);fill-opacity:1;" d="M 20.0625 4.3125 C 20.0625 5.519531 20.0625 6.730469 20.0625 7.9375 C 19.269531 7.9375 18.480469 7.9375 17.6875 7.9375 C 18.414062 7.8125 19.164062 7.773438 19.9375 7.8125 C 19.898438 6.625 19.9375 5.457031 20.0625 4.3125 Z M 20.0625 4.3125 "/>
<path style=" stroke:none;fill-rule:evenodd;fill:rgb(81.960784%,85.490196%,97.254902%);fill-opacity:1;" d="M 22.1875 11.4375 C 22.0625 11.425781 21.957031 11.46875 21.875 11.5625 C 21.460938 12.265625 21.167969 13.015625 21 13.8125 C 20.9375 16.269531 20.917969 18.730469 20.9375 21.1875 C 19.210938 21.414062 18.171875 22.371094 17.8125 24.0625 C 17.875 25.292969 18.460938 26.191406 19.5625 26.75 C 20.007812 26.949219 20.464844 27.097656 20.9375 27.1875 C 20.894531 30.042969 20.9375 32.875 21.0625 35.6875 C 20.984375 35.828125 20.878906 35.953125 20.75 36.0625 C 20.3125 35.519531 19.789062 35.101562 19.1875 34.8125 C 18.199219 35.035156 17.972656 35.578125 18.5 36.4375 C 19.105469 37.042969 19.707031 37.644531 20.3125 38.25 C 20.515625 38.3125 20.726562 38.332031 20.9375 38.3125 C 20.9375 41.4375 20.9375 44.5625 20.9375 47.6875 C 20.894531 47.902344 20.769531 47.964844 20.5625 47.875 C 20.253906 47.273438 19.777344 46.921875 19.125 46.8125 C 18.109375 47.128906 17.941406 47.710938 18.625 48.5625 C 19.144531 49.082031 19.667969 49.605469 20.1875 50.125 C 20.417969 50.265625 20.667969 50.328125 20.9375 50.3125 C 20.738281 52.871094 21.65625 54.914062 23.6875 56.4375 C 15.472656 57.824219 12.074219 54.410156 13.5 46.1875 C 13.316406 45.773438 13.003906 45.523438 12.5625 45.4375 C 12.5625 44.8125 12.5625 44.1875 12.5625 43.5625 C 12.945312 43.570312 13.214844 43.402344 13.375 43.0625 C 13.375 33.226562 13.460938 23.390625 13.625 13.5625 C 14.910156 10.367188 17.261719 9.117188 20.6875 9.8125 C 21.105469 10.4375 21.605469 10.980469 22.1875 11.4375 Z M 22.1875 11.4375 "/>
<path style=" stroke:none;fill-rule:evenodd;fill:rgb(81.568627%,85.098039%,97.254902%);fill-opacity:1;" d="M 42.9375 10.3125 C 42.96875 10.238281 43.03125 10.195312 43.125 10.1875 C 46.851562 11.394531 49.164062 13.894531 50.0625 17.6875 C 48.28125 17.476562 46.488281 17.375 44.6875 17.375 C 44.035156 17.097656 43.597656 16.617188 43.375 15.9375 C 43.332031 14.355469 43.292969 12.769531 43.25 11.1875 C 43.203125 10.863281 43.097656 10.570312 42.9375 10.3125 Z M 42.9375 10.3125 "/>
<path style=" stroke:none;fill-rule:evenodd;fill:rgb(90.588235%,92.941176%,99.215686%);fill-opacity:1;" d="M 36.1875 10.9375 C 36.828125 11.222656 37.492188 11.265625 38.1875 11.0625 C 38.269531 12.078125 38.808594 12.429688 39.8125 12.125 C 40.339844 12.011719 40.839844 11.824219 41.3125 11.5625 C 41.417969 13.019531 41.480469 14.476562 41.5 15.9375 C 41.816406 17.628906 42.792969 18.730469 44.4375 19.25 C 45.980469 19.292969 47.519531 19.332031 49.0625 19.375 C 49.492188 19.484375 49.90625 19.632812 50.3125 19.8125 C 50.355469 25.167969 50.394531 30.519531 50.4375 35.875 C 50.457031 41.402344 50.394531 46.921875 50.25 52.4375 C 49.648438 54.664062 48.210938 55.976562 45.9375 56.375 C 38.519531 56.4375 31.105469 56.457031 23.6875 56.4375 C 21.65625 54.914062 20.738281 52.871094 20.9375 50.3125 C 21.46875 49.96875 21.949219 49.550781 22.375 49.0625 C 23.410156 47.816406 24.496094 46.609375 25.625 45.4375 C 25.941406 44.644531 25.671875 44.144531 24.8125 43.9375 C 24.632812 43.964844 24.464844 44.027344 24.3125 44.125 C 23.203125 45.335938 22.078125 46.523438 20.9375 47.6875 C 20.9375 44.5625 20.9375 41.4375 20.9375 38.3125 C 21.128906 38.289062 21.296875 38.203125 21.4375 38.0625 C 22.855469 36.539062 24.253906 34.996094 25.625 33.4375 C 25.90625 32.917969 25.800781 32.480469 25.3125 32.125 C 24.921875 32.027344 24.546875 32.066406 24.1875 32.25 C 23.117188 33.382812 22.074219 34.527344 21.0625 35.6875 C 20.9375 32.875 20.894531 30.042969 20.9375 27.1875 C 23.03125 27.402344 24.511719 26.566406 25.375 24.6875 C 25.570312 23.582031 25.214844 22.707031 24.3125 22.0625 C 24.390625 21.921875 24.496094 21.796875 24.625 21.6875 C 24.707031 20.855469 24.707031 20.019531 24.625 19.1875 C 23.992188 18.488281 23.410156 18.53125 22.875 19.3125 C 22.8125 19.9375 22.792969 20.5625 22.8125 21.1875 C 22.1875 21.1875 21.5625 21.1875 20.9375 21.1875 C 20.917969 18.730469 20.9375 16.269531 21 13.8125 C 21.167969 13.015625 21.460938 12.265625 21.875 11.5625 C 21.957031 11.46875 22.0625 11.425781 22.1875 11.4375 C 22.726562 11.769531 23.308594 12 23.9375 12.125 C 27.8125 12.207031 31.6875 12.207031 35.5625 12.125 C 36.109375 11.914062 36.316406 11.515625 36.1875 10.9375 Z M 36.1875 10.9375 "/>
<path style=" stroke:none;fill-rule:evenodd;fill:rgb(3.137255%,2.745098%,3.137255%);fill-opacity:1;" d="M 40.9375 21.1875 C 40.691406 22.019531 40.191406 22.226562 39.4375 21.8125 C 39.304688 21.675781 39.199219 21.507812 39.125 21.3125 C 39.042969 20.605469 39.042969 19.894531 39.125 19.1875 C 39.597656 18.632812 40.140625 18.550781 40.75 18.9375 C 40.925781 19.671875 40.988281 20.421875 40.9375 21.1875 Z M 40.9375 21.1875 "/>
<path style=" stroke:none;fill-rule:evenodd;fill:rgb(4.313725%,3.921569%,4.313725%);fill-opacity:1;" d="M 24.3125 22.0625 C 23.515625 22.308594 23.015625 22.019531 22.8125 21.1875 C 22.792969 20.5625 22.8125 19.9375 22.875 19.3125 C 23.410156 18.53125 23.992188 18.488281 24.625 19.1875 C 24.707031 20.019531 24.707031 20.855469 24.625 21.6875 C 24.496094 21.796875 24.390625 21.921875 24.3125 22.0625 Z M 24.3125 22.0625 "/>
<path style=" stroke:none;fill-rule:evenodd;fill:rgb(2.745098%,2.745098%,3.137255%);fill-opacity:1;" d="M 29.4375 20.1875 C 29.960938 20.136719 30.378906 20.324219 30.6875 20.75 C 31.410156 21.277344 32.160156 21.316406 32.9375 20.875 C 33.296875 20.320312 33.796875 20.109375 34.4375 20.25 C 34.902344 20.5625 35.046875 21 34.875 21.5625 C 32.949219 23.5 30.992188 23.542969 29 21.6875 C 28.683594 21.046875 28.828125 20.546875 29.4375 20.1875 Z M 29.4375 20.1875 "/>
<path style=" stroke:none;fill-rule:evenodd;fill:rgb(99.607843%,63.137255%,67.45098%);fill-opacity:1;" d="M 39.4375 21.8125 C 40.191406 22.226562 40.691406 22.019531 40.9375 21.1875 C 42.242188 20.769531 43.492188 20.917969 44.6875 21.625 C 45.984375 22.453125 46.382812 23.597656 45.875 25.0625 C 45.199219 26.226562 44.175781 26.871094 42.8125 27 C 41.277344 27.210938 40.007812 26.730469 39 25.5625 C 38.378906 24.691406 38.296875 23.777344 38.75 22.8125 C 39.011719 22.492188 39.238281 22.160156 39.4375 21.8125 Z M 39.4375 21.8125 "/>
<path style=" stroke:none;fill-rule:evenodd;fill:rgb(99.607843%,63.137255%,67.45098%);fill-opacity:1;" d="M 20.9375 21.1875 C 21.5625 21.1875 22.1875 21.1875 22.8125 21.1875 C 23.015625 22.019531 23.515625 22.308594 24.3125 22.0625 C 25.214844 22.707031 25.570312 23.582031 25.375 24.6875 C 24.511719 26.566406 23.03125 27.402344 20.9375 27.1875 C 20.464844 27.097656 20.007812 26.949219 19.5625 26.75 C 18.460938 26.191406 17.875 25.292969 17.8125 24.0625 C 18.171875 22.371094 19.210938 21.414062 20.9375 21.1875 Z M 20.9375 21.1875 "/>
<path style=" stroke:none;fill-rule:evenodd;fill:rgb(0%,0%,0%);fill-opacity:1;" d="M 29.6875 31.8125 C 34.855469 31.792969 40.019531 31.8125 45.1875 31.875 C 45.855469 32.417969 45.855469 32.957031 45.1875 33.5 C 40.019531 33.582031 34.855469 33.582031 29.6875 33.5 C 29.03125 32.9375 29.03125 32.375 29.6875 31.8125 Z M 29.6875 31.8125 "/>
<path style=" stroke:none;fill-rule:evenodd;fill:rgb(1.960784%,1.960784%,2.352941%);fill-opacity:1;" d="M 20.9375 38.3125 C 20.726562 38.332031 20.515625 38.3125 20.3125 38.25 C 19.707031 37.644531 19.105469 37.042969 18.5 36.4375 C 17.972656 35.578125 18.199219 35.035156 19.1875 34.8125 C 19.789062 35.101562 20.3125 35.519531 20.75 36.0625 C 20.878906 35.953125 20.984375 35.828125 21.0625 35.6875 C 22.074219 34.527344 23.117188 33.382812 24.1875 32.25 C 24.546875 32.066406 24.921875 32.027344 25.3125 32.125 C 25.800781 32.480469 25.90625 32.917969 25.625 33.4375 C 24.253906 34.996094 22.855469 36.539062 21.4375 38.0625 C 21.296875 38.203125 21.128906 38.289062 20.9375 38.3125 Z M 20.9375 38.3125 "/>
<path style=" stroke:none;fill-rule:evenodd;fill:rgb(1.960784%,1.960784%,2.352941%);fill-opacity:1;" d="M 29.8125 36.9375 C 34.855469 36.917969 39.894531 36.9375 44.9375 37 C 45.882812 37.523438 45.925781 38.105469 45.0625 38.75 C 39.9375 38.832031 34.8125 38.832031 29.6875 38.75 C 29 38.089844 29.039062 37.488281 29.8125 36.9375 Z M 29.8125 36.9375 "/>
<path style=" stroke:none;fill-rule:evenodd;fill:rgb(2.352941%,2.745098%,2.745098%);fill-opacity:1;" d="M 29.8125 43.5625 C 34.855469 43.542969 39.894531 43.5625 44.9375 43.625 C 45.882812 44.148438 45.925781 44.730469 45.0625 45.375 C 39.9375 45.457031 34.8125 45.457031 29.6875 45.375 C 29 44.714844 29.039062 44.113281 29.8125 43.5625 Z M 29.8125 43.5625 "/>
<path style=" stroke:none;fill-rule:evenodd;fill:rgb(2.352941%,2.352941%,2.745098%);fill-opacity:1;" d="M 20.9375 50.3125 C 20.667969 50.328125 20.417969 50.265625 20.1875 50.125 C 19.667969 49.605469 19.144531 49.082031 18.625 48.5625 C 17.941406 47.710938 18.109375 47.128906 19.125 46.8125 C 19.777344 46.921875 20.253906 47.273438 20.5625 47.875 C 20.769531 47.964844 20.894531 47.902344 20.9375 47.6875 C 22.078125 46.523438 23.203125 45.335938 24.3125 44.125 C 24.464844 44.027344 24.632812 43.964844 24.8125 43.9375 C 25.671875 44.144531 25.941406 44.644531 25.625 45.4375 C 24.496094 46.609375 23.410156 47.816406 22.375 49.0625 C 21.949219 49.550781 21.46875 49.96875 20.9375 50.3125 Z M 20.9375 50.3125 "/>
<path style=" stroke:none;fill-rule:evenodd;fill:rgb(0.784314%,0.784314%,0.784314%);fill-opacity:1;" d="M 29.8125 48.8125 C 34.894531 48.792969 39.980469 48.8125 45.0625 48.875 C 45.742188 49.28125 45.847656 49.800781 45.375 50.4375 C 45.242188 50.523438 45.097656 50.585938 44.9375 50.625 C 39.894531 50.707031 34.855469 50.707031 29.8125 50.625 C 28.988281 50.019531 28.988281 49.417969 29.8125 48.8125 Z M 29.8125 48.8125 "/>
</g>
</svg>
